# xmcd CD database file
#
# Track frame offsets:
#	187
#	33287
#	60705
#	100002
#	111050
#	153512
#	159162
#	171540
#	187442
#	206220
#	239752
#	265020
#
# Disc length: 4068 seconds
#
# Revision: 5
# Processed by: cddbd v1.5.1PL0 Copyright (c) Steve Scherf et al.
# Submitted via: CDex 1.51
#
DISCID=aa0fe20c
DTITLE=King Crimson - Frame By Frame 1969-1971
DYEAR=1991
DGENRE=Progressive Rock
TTITLE0=21st Century Schizoid Man
TTITLE1=I Talk To The Wind
TTITLE2=Epitaph
TTITLE3=Moonchild
TTITLE4=In The Court Of The Crimson King
TTITLE5=Peace - A Theme
TTITLE6=Cat Food
TTITLE7=Groon
TTITLE8=Cadence And Cascade (Remix)
TTITLE9=The Sailor's Tale (Abridged)
TTITLE10=Ladies Of The Road
TTITLE11=Bolero (Remix)
EXTD=\n YEAR: 1991
EXTT0=PERFORMER: King Crimson\n
EXTT1=PERFORMER: King Crimson\n
EXTT2=PERFORMER: King Crimson\n
EXTT3=PERFORMER: King Crimson\n
EXTT4=PERFORMER: King Crimson\n
EXTT5=PERFORMER: King Crimson\n
EXTT6=PERFORMER: King Crimson\n
EXTT7=PERFORMER: King Crimson\n
EXTT8=PERFORMER: King Crimson\n
EXTT9=PERFORMER: King Crimson\n
EXTT10=PERFORMER: King Crimson\n
EXTT11=PERFORMER: King Crimson\n
PLAYORDER=
